<svg width="45" height="46" viewBox="0 0 45 46" fill="none" xmlns="http://www.w3.org/2000/svg">
<path d="M22.5 0C10.1338 0 0 10.295 0 22.8579C0 35.4208 10.1338 45.7158 22.5 45.7158C34.8662 45.7158 45 35.4208 45 22.8579C45 10.295 34.8662 0 22.5 0Z" fill="#77DD00"/>
<path d="M45 22.8579C45 35.4208 35.0914 45.7158 23 45.7158V0C35.0914 0 45 10.295 45 22.8579Z" fill="#66BB00"/>
<path d="M36 20.1149V25.6007H25.2V36.5725H19.8V25.6007H9V20.1149H19.8V9.14307H25.2V20.1149H36Z" fill="#E7E7E7"/>
<path d="M36 20.1149V25.6007H25.6V36.5725H23V9.14307H25.6V20.1149H36Z" fill="#D3D3D8"/>
</svg>
