<svg width="45" height="45" viewBox="0 0 45 45" fill="none" xmlns="http://www.w3.org/2000/svg">
<path d="M22.5 0C10.1338 0 0 10.1338 0 22.5C0 34.8662 10.1338 45 22.5 45C34.8662 45 45 34.8662 45 22.5C45 10.1338 34.8662 0 22.5 0Z" fill="#FF3636"/>
<path d="M45 22.5C45 34.8662 34.8662 45 22.5 45V0C34.8662 0 45 10.1338 45 22.5Z" fill="#F40000"/>
<path d="M26.2177 22.5L33.6797 29.962L29.962 33.6797L22.5 26.2177L15.038 33.6797L11.3203 29.962L18.7823 22.5L11.3203 15.038L15.038 11.3203L22.5 18.7823L29.962 11.3203L33.6797 15.038L26.2177 22.5Z" fill="#E7E7E7"/>
<path d="M26.2177 22.5L33.6797 29.962L29.962 33.6797L22.5 26.2177V18.7823L29.962 11.3203L33.6797 15.038L26.2177 22.5Z" fill="#D3D3D8"/>
</svg>
