<svg width="45" height="45" viewBox="0 0 45 45" fill="none" xmlns="http://www.w3.org/2000/svg">
<path d="M22.5 45C34.9264 45 45 34.9264 45 22.5C45 10.0736 34.9264 0 22.5 0C10.0736 0 0 10.0736 0 22.5C0 34.9264 10.0736 45 22.5 45Z" fill="#FF90C2"/>
<path d="M45 22.5C45 20.564 44.7554 18.6851 44.2955 16.8925L38.413 11.01L8.57886 36.8606L15.6574 43.9391C17.8153 44.6273 20.114 45 22.5 45C34.9265 45 45 34.9264 45 22.5Z" fill="#FF73AF"/>
<path d="M12.5894 24.6277L10.5315 30.9047L9.67139 35.7681L14.5347 34.9081L20.8118 32.8501L17.9736 27.4658L12.5894 24.6277Z" fill="white"/>
<path d="M20.8114 32.8501L14.5351 34.9079L9.67139 35.768L17.9737 27.4657L20.8114 32.8501Z" fill="#EDEDED"/>
<path d="M24.8496 12.3638L33.0708 20.585L20.812 32.8437L12.5908 24.6225L24.8496 12.3638Z" fill="#FFE670"/>
<path d="M16.6963 28.7385L28.955 16.4798L33.0655 20.5903L20.8068 32.849L16.6963 28.7385Z" fill="#FFD400"/>
<path d="M14.5348 34.908L10.5315 30.9047L8.57886 36.8606L14.5348 34.908Z" fill="#4A5BE5"/>
<path d="M14.5351 34.9079L8.57886 36.8606L12.5333 32.9061L14.5351 34.9079Z" fill="#283EE1"/>
<path d="M35.0186 18.6433L26.7961 10.4208L29.8911 7.32586C31.227 5.99001 33.3929 5.99001 34.7287 7.32586L38.1135 10.7107C39.4494 12.0466 39.4494 14.2124 38.1135 15.5483L35.0186 18.6433Z" fill="#00F8FE"/>
<path d="M38.1135 15.5481L35.0186 18.6431L30.9075 14.532L36.4212 9.01831L38.1134 10.7106C39.4497 12.0467 39.4497 14.2119 38.1135 15.5481Z" fill="#00D9E0"/>
<path d="M27.2197 9.99194L35.4409 18.2131L32.6845 20.9696L24.4633 12.7484L27.2197 9.99194Z" fill="white"/>
<path d="M28.5708 16.8655L31.3273 14.109L35.4377 18.2195L32.6813 20.976L28.5708 16.8655Z" fill="#EDEDED"/>
</svg>
