<svg width="45" height="45" viewBox="0 0 45 45" fill="none" xmlns="http://www.w3.org/2000/svg">
<g clip-path="url(#clip0)">
<path d="M0.0107369 38.1545C1.78057 23.6999 13.7989 12.695 28.237 12.0599V8.80211C28.237 6.32744 29.5852 5.44922 30.7395 5.44922C31.5806 5.44922 32.4331 5.87563 33.2736 6.71608L43.463 16.9056C45.5134 18.9559 45.5134 22.2919 43.463 24.3423L33.2736 34.5317C32.4331 35.3722 31.5803 35.7986 30.7395 35.7986C29.5852 35.7986 28.237 34.9204 28.237 32.4457V28.962C26.5946 28.6414 24.9298 28.4793 23.2743 28.4793C15.0565 28.4793 7.24661 32.4471 2.38241 39.0931C2.12835 39.4399 1.72941 39.6328 1.31845 39.6328C1.15606 39.6328 0.991953 39.6026 0.834025 39.5401C0.276125 39.3194 -0.0623909 38.7498 0.0107369 38.1545Z" fill="#00ACB3"/>
<path d="M0.0107369 38.1545C1.5399 25.6658 10.72 15.7537 22.5008 12.8784V28.491C14.5687 28.7313 7.09383 32.6559 2.38241 39.0932C2.12835 39.4399 1.72941 39.6329 1.31845 39.6329C1.15606 39.6329 0.991954 39.6027 0.834025 39.5402C0.276125 39.3194 -0.0623909 38.7498 0.0107369 38.1545Z" fill="#00D8E0"/>
</g>
<defs>
<clipPath id="clip0">
<rect width="45" height="45" fill="white"/>
</clipPath>
</defs>
</svg>
