<svg width="45" height="45" viewBox="0 0 45 45" fill="none" xmlns="http://www.w3.org/2000/svg">
<g clip-path="url(#clip0)">
<path d="M0.0108589 38.1545C1.78069 23.6999 13.799 12.6951 28.2371 12.0599V8.80213C28.2371 6.32746 29.5854 5.44924 30.7396 5.44924C31.5808 5.44924 32.4332 5.87564 33.2737 6.7161L43.4632 16.9056C45.5135 18.9559 45.5135 22.292 43.4632 24.3423L33.2737 34.5318C32.4332 35.3722 31.5804 35.7986 30.7396 35.7986C29.5854 35.7986 28.2371 34.9204 28.2371 32.4457V28.962C26.5947 28.6414 24.9299 28.4793 23.2744 28.4793C15.0566 28.4793 7.24673 32.4471 2.38253 39.0931C2.12847 39.4399 1.72953 39.6329 1.31858 39.6329C1.15618 39.6329 0.992075 39.6026 0.834147 39.5402C0.276247 39.3194 -0.0622688 38.7498 0.0108589 38.1545Z" fill="#737373"/>
<path d="M0.0108589 38.1545C1.54002 25.6658 10.7201 15.7537 22.5009 12.8784V28.491C14.5688 28.7313 7.09396 32.6558 2.38253 39.0931C2.12848 39.4399 1.72953 39.6329 1.31858 39.6329C1.15618 39.6329 0.992076 39.6026 0.834147 39.5402C0.276248 39.3194 -0.0622688 38.7498 0.0108589 38.1545Z" fill="#A2A2A2"/>
</g>
<defs>
<clipPath id="clip0">
<rect width="45" height="45" fill="white"/>
</clipPath>
</defs>
</svg>
