<svg width="69" height="69" viewBox="0 0 69 69" fill="none" xmlns="http://www.w3.org/2000/svg">
<g clip-path="url(#clip0)">
<path d="M50.6276 16.6178C50.6276 21.1845 48.9899 25.1375 45.7592 28.3687C42.5285 31.5994 38.5751 33.2371 34.0083 33.2371H34.0004C29.4394 33.2355 25.4886 31.5978 22.2579 28.3687C19.0267 25.1375 17.3895 21.1845 17.3895 16.6178C17.3895 12.0526 19.0267 8.0991 22.2579 4.86841C25.487 1.63877 29.4379 0.00157929 34.0004 0H34.0083C38.5735 0 42.527 1.63772 45.7592 4.86841C48.9899 8.0991 50.6276 12.0526 50.6276 16.6178Z" fill="#FFBB85"/>
<path d="M63.2277 57.1332C63.2277 60.7361 62.0817 63.6531 59.8244 65.8014C57.5934 67.9245 54.6427 69 51.0551 69H17.8312C14.2436 69 11.2929 67.9245 9.06352 65.8014C6.80461 63.6515 5.66016 60.7351 5.66016 57.1332C5.66016 55.7477 5.70596 54.3769 5.79755 53.0587C5.89073 51.711 6.07919 50.2444 6.35715 48.6972C6.63721 47.1374 6.99728 45.6629 7.42843 44.3152C7.87589 42.9202 8.48129 41.5441 9.23039 40.2259C10.0085 38.8578 10.9223 37.6659 11.9468 36.6847C13.0207 35.6576 14.3336 34.8327 15.8513 34.2315C17.3637 33.6335 19.0404 33.3303 20.8345 33.3303C21.5383 33.3303 22.22 33.6182 23.534 34.4742C24.3563 35.0106 25.3038 35.6213 26.3498 36.2898C27.2532 36.8658 28.4766 37.4059 29.989 37.8939C31.3183 38.324 32.6675 38.564 34.0004 38.6056C34.1473 38.6109 34.2942 38.6135 34.441 38.6135C35.9214 38.6135 37.4185 38.3708 38.8946 37.8939C40.4071 37.4059 41.6321 36.8658 42.5349 36.2898C43.5919 35.6144 44.5395 35.0043 45.3497 34.4758C46.6647 33.6182 47.3454 33.3303 48.0508 33.3303C49.8433 33.3303 51.52 33.6335 53.0334 34.2315C54.5511 34.8327 55.864 35.6592 56.9369 36.6847C57.9629 37.6659 58.8768 38.8578 59.6543 40.2259C60.404 41.5452 61.0104 42.9202 61.4563 44.3137C61.888 45.6629 62.2491 47.1374 62.5292 48.6983C62.8055 50.247 62.9945 51.7137 63.0872 53.0576C63.1803 54.3716 63.2261 55.7424 63.2277 57.1332Z" fill="#6AA9FF"/>
<path d="M34.0083 33.2371H34.0004V0H34.0083C38.5735 0 42.527 1.63772 45.7592 4.86841C48.9899 8.0991 50.6277 12.0526 50.6277 16.6178C50.6277 21.1845 48.9899 25.1375 45.7592 28.3687C42.5286 31.5994 38.5751 33.2371 34.0083 33.2371Z" fill="#F5A86C"/>
<path d="M63.2277 57.1332C63.2277 60.7361 62.0817 63.6531 59.8244 65.8014C57.5933 67.9245 54.6427 69 51.0551 69H34.0004V38.6056C34.1473 38.6109 34.2942 38.6135 34.441 38.6135C35.9214 38.6135 37.4185 38.3708 38.8946 37.8939C40.407 37.4059 41.632 36.8658 42.5349 36.2898C43.5919 35.6144 44.5395 35.0043 45.3497 34.4758C46.6647 33.6182 47.3454 33.3303 48.0508 33.3303C49.8433 33.3303 51.5199 33.6335 53.0334 34.2315C54.5511 34.8327 55.864 35.6592 56.9369 36.6847C57.9629 37.6659 58.8768 38.8578 59.6543 40.2259C60.4039 41.5452 61.0104 42.9202 61.4563 44.3137C61.8879 45.6629 62.2491 47.1374 62.5291 48.6983C62.8055 50.247 62.9945 51.7137 63.0872 53.0576C63.1803 54.3716 63.2261 55.7424 63.2277 57.1332Z" fill="#2682FF"/>
</g>
<defs>
<clipPath id="clip0">
<rect width="69" height="69" fill="white"/>
</clipPath>
</defs>
</svg>
